<svg width="32" height="32" viewBox="0 0 32 32" fill="none" xmlns="http://www.w3.org/2000/svg">
  <!-- Enhanced Definitions -->
  <defs>
    <!-- Main Background Gradient -->
    <linearGradient id="bgGradient" x1="0%" y1="0%" x2="100%" y2="100%">
      <stop offset="0%" style="stop-color:#4F46E5;stop-opacity:1" />
      <stop offset="50%" style="stop-color:#3B82F6;stop-opacity:1" />
      <stop offset="100%" style="stop-color:#1E40AF;stop-opacity:1" />
    </linearGradient>
    
    <!-- Enhanced Pulse Gradient -->
    <linearGradient id="pulseGradient" x1="0%" y1="0%" x2="100%" y2="0%">
      <stop offset="0%" style="stop-color:#059669;stop-opacity:1" />
      <stop offset="50%" style="stop-color:#10B981;stop-opacity:1" />
      <stop offset="100%" style="stop-color:#34D399;stop-opacity:1" />
    </linearGradient>
    
    <!-- Inner Glow Effect -->
    <filter id="innerGlow">
      <feGaussianBlur stdDeviation="0.8" result="coloredBlur"/>
      <feMerge> 
        <feMergeNode in="coloredBlur"/>
        <feMergeNode in="SourceGraphic"/>
      </feMerge>
    </filter>
  </defs>
  
  <!-- Background Circle with Enhanced Design -->
  <circle cx="16" cy="16" r="15" fill="url(#bgGradient)" stroke="#FFFFFF" stroke-width="1" opacity="0.95"/>
  
  <!-- Inner Ring -->
  <circle cx="16" cy="16" r="12" fill="none" stroke="#FFFFFF" stroke-width="0.5" opacity="0.3"/>
  
  <!-- Enhanced Pulse Wave with Better Curve -->
  <g filter="url(#innerGlow)">
    <path d="M 4 16 Q 8 10, 12 16 Q 16 22, 20 16 Q 24 10, 28 16" 
          stroke="url(#pulseGradient)" 
          stroke-width="2.5" 
          fill="none" 
          stroke-linecap="round"
          opacity="0.9"/>
    
    <!-- Secondary Pulse Line -->
    <path d="M 6 16 Q 10 12, 14 16 Q 18 20, 22 16 Q 26 12, 30 16" 
          stroke="#10B981" 
          stroke-width="1" 
          fill="none" 
          stroke-linecap="round" 
          opacity="0.6"/>
  </g>
  
  <!-- Enhanced Central Hub -->
  <circle cx="16" cy="16" r="4" fill="#FFFFFF" stroke="#3B82F6" stroke-width="1"/>
  <circle cx="16" cy="16" r="2.5" fill="#3B82F6" opacity="0.8"/>
  <circle cx="16" cy="16" r="1" fill="#FFFFFF"/>
  
  <!-- Corner Accents -->
  <circle cx="6" cy="6" r="1" fill="#10B981" opacity="0.8"/>
  <circle cx="26" cy="6" r="1" fill="#10B981" opacity="0.8"/>
  <circle cx="6" cy="26" r="1" fill="#10B981" opacity="0.8"/>
  <circle cx="26" cy="26" r="1" fill="#10B981" opacity="0.8"/>
</svg> 