<svg width="120" height="120" viewBox="0 0 120 120" fill="none" xmlns="http://www.w3.org/2000/svg">
  <!-- Modern Definitions -->
  <defs>
    <!-- Clean Background Gradient -->
    <linearGradient id="bgGradient" x1="0%" y1="0%" x2="100%" y2="100%">
      <stop offset="0%" style="stop-color:#6366F1;stop-opacity:1" />
      <stop offset="100%" style="stop-color:#3B82F6;stop-opacity:1" />
    </linearGradient>
    
    <!-- Clean Pulse Gradient -->
    <linearGradient id="pulseGradient" x1="0%" y1="0%" x2="100%" y2="0%">
      <stop offset="0%" style="stop-color:#10B981;stop-opacity:1" />
      <stop offset="100%" style="stop-color:#34D399;stop-opacity:1" />
    </linearGradient>
    
    <!-- Subtle Glow -->
    <filter id="subtleGlow">
      <feGaussianBlur stdDeviation="2" result="coloredBlur"/>
      <feMerge> 
        <feMergeNode in="coloredBlur"/>
        <feMergeNode in="SourceGraphic"/>
      </feMerge>
    </filter>
  </defs>
  
  <!-- Main Circle with Clean Design -->
  <circle cx="60" cy="60" r="55" fill="url(#bgGradient)" stroke="#FFFFFF" stroke-width="2"/>
  
  <!-- Clean Inner Ring -->
  <circle cx="60" cy="60" r="45" fill="none" stroke="#FFFFFF" stroke-width="1" opacity="0.2"/>
  
  <!-- Modern Pulse Wave -->
  <g filter="url(#subtleGlow)">
    <!-- Main Pulse Line - Clean and Simple -->
    <path d="M 25 60 Q 35 40, 45 60 Q 55 80, 65 60 Q 75 40, 85 60 Q 95 80, 105 60" 
          stroke="url(#pulseGradient)" 
          stroke-width="3" 
          fill="none" 
          stroke-linecap="round"/>
  </g>
  
  <!-- Clean Central Element -->
  <circle cx="60" cy="60" r="6" fill="#FFFFFF" stroke="#3B82F6" stroke-width="1.5"/>
  <circle cx="60" cy="60" r="3" fill="#3B82F6"/>
  
  <!-- Minimal Corner Elements -->
  <circle cx="25" cy="25" r="2" fill="#10B981" opacity="0.8"/>
  <circle cx="95" cy="25" r="2" fill="#10B981" opacity="0.8"/>
  <circle cx="25" cy="95" r="2" fill="#10B981" opacity="0.8"/>
  <circle cx="95" cy="95" r="2" fill="#10B981" opacity="0.8"/>
  
  <!-- Clean Grid Lines -->
  <line x1="60" y1="15" x2="60" y2="25" stroke="#FFFFFF" stroke-width="1" opacity="0.3"/>
  <line x1="60" y1="95" x2="60" y2="105" stroke="#FFFFFF" stroke-width="1" opacity="0.3"/>
  <line x1="15" y1="60" x2="25" y2="60" stroke="#FFFFFF" stroke-width="1" opacity="0.3"/>
  <line x1="95" y1="60" x2="105" y2="60" stroke="#FFFFFF" stroke-width="1" opacity="0.3"/>
</svg> 