<svg width="120" height="120" viewBox="0 0 120 120" fill="none" xmlns="http://www.w3.org/2000/svg">
  <!-- Enhanced Definitions -->
  <defs>
    <!-- Main Background Gradient -->
    <linearGradient id="bgGradient" x1="0%" y1="0%" x2="100%" y2="100%">
      <stop offset="0%" style="stop-color:#4F46E5;stop-opacity:1" />
      <stop offset="50%" style="stop-color:#3B82F6;stop-opacity:1" />
      <stop offset="100%" style="stop-color:#1E40AF;stop-opacity:1" />
    </linearGradient>
    
    <!-- Enhanced Pulse Gradient -->
    <linearGradient id="pulseGradient" x1="0%" y1="0%" x2="100%" y2="0%">
      <stop offset="0%" style="stop-color:#059669;stop-opacity:1" />
      <stop offset="25%" style="stop-color:#10B981;stop-opacity:1" />
      <stop offset="50%" style="stop-color:#34D399;stop-opacity:1" />
      <stop offset="75%" style="stop-color:#6EE7B7;stop-opacity:1" />
      <stop offset="100%" style="stop-color:#A7F3D0;stop-opacity:1" />
    </linearGradient>
    
    <!-- Inner Glow Effect -->
    <filter id="innerGlow">
      <feGaussianBlur stdDeviation="3" result="coloredBlur"/>
      <feMerge> 
        <feMergeNode in="coloredBlur"/>
        <feMergeNode in="SourceGraphic"/>
      </feMerge>
    </filter>
    
    <!-- Outer Glow Effect -->
    <filter id="outerGlow">
      <feGaussianBlur stdDeviation="4" result="coloredBlur"/>
      <feMerge> 
        <feMergeNode in="coloredBlur"/>
        <feMergeNode in="SourceGraphic"/>
      </feMerge>
    </filter>
    
    <!-- Shadow Effect -->
    <filter id="shadow" x="-50%" y="-50%" width="200%" height="200%">
      <feDropShadow dx="0" dy="4" stdDeviation="8" flood-color="#000000" flood-opacity="0.15"/>
    </filter>
  </defs>
  
  <!-- Shadow Circle -->
  <circle cx="62" cy="62" r="55" fill="#000000" opacity="0.1" filter="url(#shadow)"/>
  
  <!-- Main Circle Background -->
  <circle cx="60" cy="60" r="55" fill="url(#bgGradient)" stroke="#FFFFFF" stroke-width="2" opacity="0.9"/>
  
  <!-- Inner Glow Ring -->
  <circle cx="60" cy="60" r="50" fill="none" stroke="#FFFFFF" stroke-width="1" opacity="0.3"/>
  
  <!-- Secondary Inner Ring -->
  <circle cx="60" cy="60" r="45" fill="none" stroke="#E0E7FF" stroke-width="0.5" opacity="0.4"/>
  
  <!-- Enhanced Pulse Wave Lines -->
  <g filter="url(#innerGlow)">
    <!-- Main Pulse Line with Better Curve -->
    <path d="M 20 60 Q 30 35, 40 60 Q 50 85, 60 60 Q 70 35, 80 60 Q 90 85, 100 60" 
          stroke="url(#pulseGradient)" 
          stroke-width="4" 
          fill="none" 
          stroke-linecap="round"
          opacity="0.9"/>
    
    <!-- Secondary Pulse Line -->
    <path d="M 25 60 Q 35 42, 45 60 Q 55 78, 65 60 Q 75 42, 85 60 Q 95 78, 105 60" 
          stroke="#10B981" 
          stroke-width="2" 
          fill="none" 
          stroke-linecap="round" 
          opacity="0.7"/>
    
    <!-- Tertiary Pulse Line -->
    <path d="M 30 60 Q 40 48, 50 60 Q 60 72, 70 60 Q 80 48, 90 60 Q 100 72, 110 60" 
          stroke="#34D399" 
          stroke-width="1" 
          fill="none" 
          stroke-linecap="round" 
          opacity="0.5"/>
  </g>
  
  <!-- Central Hub with Enhanced Design -->
  <circle cx="60" cy="60" r="8" fill="#FFFFFF" stroke="#3B82F6" stroke-width="1.5"/>
  <circle cx="60" cy="60" r="5" fill="#3B82F6" opacity="0.8"/>
  <circle cx="60" cy="60" r="2" fill="#FFFFFF"/>
  
  <!-- Outer Ring with Better Design -->
  <circle cx="60" cy="60" r="52" fill="none" stroke="#FFFFFF" stroke-width="1" opacity="0.3"/>
  
  <!-- Corner Accents with Better Positioning -->
  <circle cx="22" cy="22" r="2.5" fill="#10B981" opacity="0.9"/>
  <circle cx="98" cy="22" r="2.5" fill="#10B981" opacity="0.9"/>
  <circle cx="22" cy="98" r="2.5" fill="#10B981" opacity="0.9"/>
  <circle cx="98" cy="98" r="2.5" fill="#10B981" opacity="0.9"/>
  
  <!-- Enhanced Grid Lines -->
  <line x1="60" y1="12" x2="60" y2="22" stroke="#FFFFFF" stroke-width="0.8" opacity="0.4"/>
  <line x1="60" y1="98" x2="60" y2="108" stroke="#FFFFFF" stroke-width="0.8" opacity="0.4"/>
  <line x1="12" y1="60" x2="22" y2="60" stroke="#FFFFFF" stroke-width="0.8" opacity="0.4"/>
  <line x1="98" y1="60" x2="108" y2="60" stroke="#FFFFFF" stroke-width="0.8" opacity="0.4"/>
  
  <!-- Diagonal Accent Lines -->
  <line x1="25" y1="25" x2="35" y2="35" stroke="#10B981" stroke-width="0.5" opacity="0.6"/>
  <line x1="85" y1="25" x2="95" y2="35" stroke="#10B981" stroke-width="0.5" opacity="0.6"/>
  <line x1="25" y1="95" x2="35" y2="85" stroke="#10B981" stroke-width="0.5" opacity="0.6"/>
  <line x1="85" y1="95" x2="95" y2="85" stroke="#10B981" stroke-width="0.5" opacity="0.6"/>
  
  <!-- Subtle Inner Dots -->
  <circle cx="40" cy="40" r="1" fill="#FFFFFF" opacity="0.6"/>
  <circle cx="80" cy="40" r="1" fill="#FFFFFF" opacity="0.6"/>
  <circle cx="40" cy="80" r="1" fill="#FFFFFF" opacity="0.6"/>
  <circle cx="80" cy="80" r="1" fill="#FFFFFF" opacity="0.6"/>
</svg> 